<?xml version="1.0" encoding="utf-8"?>
<!-- Generator: Adobe Illustrator 26.0.3, SVG Export Plug-In . SVG Version: 6.00 Build 0)  -->
<svg version="1.1" id="Layer_1" xmlns="http://www.w3.org/2000/svg" xmlns:xlink="http://www.w3.org/1999/xlink" x="0px" y="0px"
	 viewBox="0 0 130.12 103.83" style="enable-background:new 0 0 130.12 103.83;" xml:space="preserve">
<style type="text/css">
	.st0{fill:#EFEFEF;}
	.st1{fill:#F6C5B4;}
	.st2{fill:none;stroke:#333333;stroke-width:7;stroke-linecap:round;stroke-linejoin:round;stroke-miterlimit:10;}
</style>
<path class="st0" d="M89.79,7.92c-12.57-4.02-16.38,8.02-16.38,8.02l-3.73,1.36c-1.91-2.64-3.65-4.75-4.62-5.24
	c-3.08-1.53-7.77-3.17-12.98-0.38s-6.86,9.92-6.86,9.92l0.57,4.43L32.82,5.66c0,0-7.15-4.26-14.51-0.83
	c-7.37,3.43-6.58,13.77-6.58,13.77l9.17,16.56l-3.67,1.34c0,0-5.5-0.44-10.21,3.75c-4.72,4.19-3.3,10.41-3.3,10.41
	s12.06,13.46,18.12,18.98c6.06,5.52,23.4,30.67,56.91,30.67c25.78,0,47.89-15.24,47.89-38.1C126.62,39.38,102.37,11.95,89.79,7.92z"
	/>
<path class="st1" d="M89.79,7.92c-12.57-4.02-16.38,8.02-16.38,8.02l-3.73,1.36c-1.91-2.64-3.65-4.75-4.62-5.24
	c-3.08-1.53-7.77-3.17-12.98-0.38s-6.86,9.92-6.86,9.92l0.57,4.43L32.82,5.66c0,0-7.15-4.26-14.51-0.83
	c-7.37,3.43-6.58,13.77-6.58,13.77l9.17,16.56l-3.67,1.34c0,0-5.5-0.44-10.21,3.75c-4.72,4.19-3.3,10.41-3.3,10.41
	s12.06,13.46,18.12,18.98c6.06,5.52,23.4,30.67,56.91,30.67c25.78,0,47.89-15.24,47.89-38.1C126.62,39.38,102.37,11.95,89.79,7.92z
	 M91.06,91.76c-32.51,9.79-57.65-18.79-61.21-22.86C26.3,64.84,7.5,49.86,13.34,45.79c5.84-4.06,15.75,13.46,21.33,13.71
	c5.59,0.25,3.42-7.37-3.11-18.79c-6.54-11.43-13.65-21.59-9.58-25.4s7.62-3.3,10.67,0c3.05,3.3,16.51,17.78,16.51,17.78
	s0-14.98,7.37-15.75s18.69,8.17,18.69,8.17s2.12-7.62,6.13-9.21C95.91,10.52,147.23,74.84,91.06,91.76z"/>
<path class="st2" d="M32.82,56.72L11.72,18.6c0,0-0.78-10.34,6.58-13.77s14.51,0.83,14.51,0.83l18.61,29.25"/>
<path class="st2" d="M78.73,31.19c0,0-10.59-17.59-13.67-19.12c-3.08-1.53-7.77-3.17-12.98-0.38s-6.86,9.92-6.86,9.92"/>
<path class="st2" d="M73.41,15.94c0,0,3.81-12.04,16.38-8.02s36.83,31.45,36.83,54.31s-22.11,38.1-47.89,38.1
	c-33.51,0-50.85-25.14-56.91-30.67S3.7,50.68,3.7,50.68S2.28,44.45,7,40.26s10.21-3.75,10.21-3.75"/>
</svg>
